<!--
  - MIT License
  -
  - Copyright (c) 2022 NemeaQ
  -
  - Permission is hereby granted, free of charge, to any person obtaining a copy
  - of this software and associated documentation files (the "Software"), to deal
  - in the Software without restriction, including without limitation the rights
  - to use, copy, modify, merge, publish, distribute, sublicense, and/or sell
  - copies of the Software, and to permit persons to whom the Software is
  - furnished to do so, subject to the following conditions:
  -
  - The above copyright notice and this permission notice shall be included in all
  - copies or substantial portions of the Software.
  -
  - THE SOFTWARE IS PROVIDED "AS IS", WITHOUT WARRANTY OF ANY KIND, EXPRESS OR
  - IMPLIED, INCLUDING BUT NOT LIMITED TO THE WARRANTIES OF MERCHANTABILITY,
  - FITNESS FOR A PARTICULAR PURPOSE AND NONINFRINGEMENT. IN NO EVENT SHALL THE
  - AUTHORS OR COPYRIGHT HOLDERS BE LIABLE FOR ANY CLAIM, DAMAGES OR OTHER
  - LIABILITY, WHETHER IN AN ACTION OF CONTRACT, TORT OR OTHERWISE, ARISING FROM,
  - OUT OF OR IN CONNECTION WITH THE SOFTWARE OR THE USE OR OTHER DEALINGS IN THE
  - SOFTWARE.
  -->

<svg xmlns="http://www.w3.org/2000/svg" viewBox="0 0 2166.23 424.28">
    <defs>
        <style>
            .cls-1{fill:#fff;}.cls-2{isolation:isolate;}.cls-3{fill:none;stroke:#fff;stroke-linecap:round;stroke-linejoin:round;stroke-width:16px;}
        </style>
    </defs>
    <g id="Layer_2" data-name="Layer 2">
        <g id="DarkLong">
            <g id="Dark">
                <path class="cls-1"
                      d="M185.72,16,356,114.31,355.45,310,186.28,408.28,16,310l.55-195.66L185.72,16m0-16a15.94,15.94,0,0,0-8,2.17L8.52,100.47a16,16,0,0,0-8,13.79L0,309.93a16,16,0,0,0,8,13.9l170.28,98.31a16,16,0,0,0,16,0l169.16-98.31a16,16,0,0,0,8-13.79L372,114.36a16,16,0,0,0-8-13.9L193.72,2.14a16,16,0,0,0-8-2.14Z"/>
                <g class="cls-2">
                    <polygon class="cls-3" points="300.32 146.93 187.56 212.46 74.05 146.93 186.81 81.4 300.32 146.93"/>
                    <polygon class="cls-3"
                             points="300.32 146.93 299.95 277.36 187.19 342.89 187.56 212.46 300.32 146.93"/>
                    <polygon class="cls-3"
                             points="187.56 212.46 187.19 342.89 73.68 277.35 74.05 146.93 187.56 212.46"/>
                </g>
            </g>
            <path class="cls-1" d="M560.69,274.21h14.6L549,345.11h-14.2l-26.2-70.9h15.1l18.5,52.7Z"/>
            <path class="cls-1"
                  d="M621,328.91h-28.8l-5.9,16.2h-14.6l27.2-70.9h16l27,70.9h-15Zm-24.2-12.6h19.6l-9.8-26.8Z"/>
            <path class="cls-1" d="M697.19,345.11,665,294.81v50.3h-13.8v-70.9h17.2l29.5,46.9v-46.9h13.8v70.9Z"/>
            <path class="cls-1" d="M728.29,345.11v-70.9h14v70.9Z"/>
            <path class="cls-1" d="M758.89,345.11v-70.9h13.8v57.7h31.6v13.2Z"/>
            <path class="cls-1"
                  d="M856.09,328.91h-28.8l-5.9,16.2h-14.6L834,274.21h16l27,70.9H862Zm-24.2-12.6h19.59l-9.79-26.8Z"/>
            <path class="cls-1"
                  d="M942.48,294.91a15.94,15.94,0,0,0-1-3.25,10.46,10.46,0,0,0-2.25-3.25,12.16,12.16,0,0,0-3.85-2.5,14.84,14.84,0,0,0-5.75-1,13.12,13.12,0,0,0-4.55.75,11.13,11.13,0,0,0-3.5,2,9.21,9.21,0,0,0-2.25,2.85,7.44,7.44,0,0,0-.81,3.4,7.36,7.36,0,0,0,1.91,5,10.14,10.14,0,0,0,5.8,3l9.9,1.9a29.15,29.15,0,0,1,8.5,2.9,23.53,23.53,0,0,1,6.2,4.75,19.68,19.68,0,0,1,3.8,6.15,19.9,19.9,0,0,1,1.3,7.1,20.21,20.21,0,0,1-1.7,8.05,20.79,20.79,0,0,1-5,7,24.89,24.89,0,0,1-8,4.95,29.19,29.19,0,0,1-10.94,1.9,32.55,32.55,0,0,1-12.2-2.05,27.25,27.25,0,0,1-8.55-5.25,22,22,0,0,1-5.25-7.15,24.73,24.73,0,0,1-2.2-7.75l12.8-3.4a15.2,15.2,0,0,0,1.25,5,13.26,13.26,0,0,0,3,4.25,13.7,13.7,0,0,0,4.7,2.95,17.82,17.82,0,0,0,6.6,1.1c3.73,0,6.58-.81,8.55-2.45a7.77,7.77,0,0,0,2.95-6.25,7.43,7.43,0,0,0-2.2-5.35,11.84,11.84,0,0,0-6.4-3.05l-9.9-2a25,25,0,0,1-13.55-6.95,18.46,18.46,0,0,1-5.05-13.35,20,20,0,0,1,1.94-8.75,22.23,22.23,0,0,1,5.36-7.05,25.36,25.36,0,0,1,7.89-4.7,26.74,26.74,0,0,1,9.5-1.7,30.76,30.76,0,0,1,11,1.75,24.11,24.11,0,0,1,7.54,4.45,20.62,20.62,0,0,1,4.66,5.95,25.32,25.32,0,0,1,2.25,6.25Z"/>
            <path class="cls-1"
                  d="M994.78,346.71a32.4,32.4,0,0,1-10.65-1.7,23.74,23.74,0,0,1-8.6-5.1,24.57,24.57,0,0,1-5.8-8.4,28.91,28.91,0,0,1-2.15-11.5v-45.8h13.8V319q0,7,3.6,10.6t9.8,3.6q6.3,0,9.9-3.6t3.6-10.6v-44.8h13.8V320a28.74,28.74,0,0,1-2.15,11.5,24.3,24.3,0,0,1-5.8,8.4,23.54,23.54,0,0,1-8.65,5.1A32.83,32.83,0,0,1,994.78,346.71Z"/>
            <path class="cls-1"
                  d="M1059.18,317.81H1052v27.3h-13.9v-70.9h27.7a24.5,24.5,0,0,1,9.35,1.7,21.82,21.82,0,0,1,7.1,4.6,19.91,19.91,0,0,1,4.55,6.9,22.91,22.91,0,0,1,1.6,8.6,20,20,0,0,1-15.1,20.1l15.2,29h-15.4Zm4-11.9q5.31,0,8.2-2.7a9.21,9.21,0,0,0,2.9-7.1,9.34,9.34,0,0,0-2.9-7.2q-2.89-2.7-8.2-2.7H1052v19.7Z"/>
            <path class="cls-1" d="M1144.08,274.21h14.6l-26.3,70.9h-14.2l-26.2-70.9h15.1l18.5,52.7Z"/>
            <path class="cls-1" d="M1168.08,345.11v-70.9h14v70.9Z"/>
            <path class="cls-1" d="M1243.58,274.21h14.6l-26.3,70.9h-14.2l-26.2-70.9h15.1l18.5,52.7Z"/>
            <path class="cls-1"
                  d="M1303.88,328.91h-28.8l-5.9,16.2h-14.6l27.2-70.9h16l27,70.9h-15Zm-24.2-12.6h19.6l-9.8-26.8Z"/>
            <path class="cls-1" d="M1334.08,345.11v-70.9h13.8v57.7h31.6v13.2Z"/>
            <path class="cls-1" d="M561.84,93.65v111.5H535V93.65H491.81V68.38H605.05V93.65Z"/>
            <path class="cls-1"
                  d="M646.91,205.15H621.25V65.49h25.66v52.66a25.52,25.52,0,0,1,11.76-8,43.5,43.5,0,0,1,13.89-2.41,38.11,38.11,0,0,1,15.72,3,31.16,31.16,0,0,1,11,8,32.5,32.5,0,0,1,6.46,12,49.74,49.74,0,0,1,2.12,14.66v59.8H682.21V149.79q0-8.11-4.15-13.51t-13.41-5.4q-8.1,0-12.73,5.31a20.92,20.92,0,0,0-5,13.21Z"/>
            <path class="cls-1"
                  d="M819.56,178a39.66,39.66,0,0,1-5.5,11.67,40.35,40.35,0,0,1-9.17,9.55,44,44,0,0,1-12.63,6.46A50,50,0,0,1,776.34,208a52.19,52.19,0,0,1-18.71-3.37A45.22,45.22,0,0,1,742,194.73a47.54,47.54,0,0,1-10.71-16,55,55,0,0,1-3.95-21.41,53.19,53.19,0,0,1,3.85-20.64A48,48,0,0,1,741.52,121a46.51,46.51,0,0,1,15-10A45,45,0,0,1,774,107.35q22.19,0,34.53,13.11t12.35,36.08c0,1.8-.07,3.5-.2,5.11s-.19,2.54-.19,2.8h-67.9a20.32,20.32,0,0,0,2.21,8.58,24.05,24.05,0,0,0,5.21,6.85,23.54,23.54,0,0,0,7.43,4.53,24.8,24.8,0,0,0,9.07,1.64q9.06,0,14.18-4.05a23,23,0,0,0,7.42-10.42Zm-23.93-31.06a23.29,23.29,0,0,0-1.44-6.85,16.63,16.63,0,0,0-3.86-6,20,20,0,0,0-6.56-4.24,24.43,24.43,0,0,0-9.36-1.64,21.37,21.37,0,0,0-8.87,1.74,21.71,21.71,0,0,0-6.56,4.43,19.94,19.94,0,0,0-4.15,6,19.13,19.13,0,0,0-1.64,6.56Z"/>
            <path class="cls-1"
                  d="M931.25,107.35A51.52,51.52,0,0,1,951,111.11a46.71,46.71,0,0,1,26.24,26.33A53.43,53.43,0,0,1,981,157.69a52.68,52.68,0,0,1-3.76,20.16,48.8,48.8,0,0,1-10.42,15.92A47.05,47.05,0,0,1,951,204.28a53.88,53.88,0,0,1-39.55,0,46.91,46.91,0,0,1-15.81-10.51,48.8,48.8,0,0,1-10.42-15.92,52.49,52.49,0,0,1-3.76-20.16,53.24,53.24,0,0,1,3.76-20.25,46.73,46.73,0,0,1,26.23-26.33A51.53,51.53,0,0,1,931.25,107.35Zm0,77.35a24.83,24.83,0,0,0,9.06-1.73,21.69,21.69,0,0,0,7.72-5.12,25.69,25.69,0,0,0,5.31-8.39,35.27,35.27,0,0,0,0-23.53,25.69,25.69,0,0,0-5.31-8.39,21.69,21.69,0,0,0-7.72-5.12,24.61,24.61,0,0,0-18.13,0,21.69,21.69,0,0,0-7.72,5.12,25.67,25.67,0,0,0-5.3,8.39,35.11,35.11,0,0,0,0,23.53,25.67,25.67,0,0,0,5.3,8.39,21.69,21.69,0,0,0,7.72,5.12A24.84,24.84,0,0,0,931.25,184.7Z"/>
            <path class="cls-1"
                  d="M1001.46,205.15V65.49h25.27v55.17q3.29-5,10.71-9t18-4a43.64,43.64,0,0,1,18.52,3.76,40.23,40.23,0,0,1,13.79,10.42,45,45,0,0,1,8.58,15.72,64.43,64.43,0,0,1,2.9,19.68,60.2,60.2,0,0,1-3.19,20,47.8,47.8,0,0,1-9.06,15.92,41.18,41.18,0,0,1-14.18,10.51,43.83,43.83,0,0,1-18.33,3.76,35.78,35.78,0,0,1-17.07-3.85,28.58,28.58,0,0,1-11.09-10v11.57Zm72.15-47.65q0-13.11-6.85-20a22.67,22.67,0,0,0-16.68-6.85,24.63,24.63,0,0,0-9.17,1.73,20.93,20.93,0,0,0-7.52,5.12,25.15,25.15,0,0,0-5.11,8.39,32,32,0,0,0-1.93,11.57,31.39,31.39,0,0,0,1.93,11.38,26.26,26.26,0,0,0,5.11,8.49,21.29,21.29,0,0,0,7.52,5.31,23.38,23.38,0,0,0,9.17,1.83,22.53,22.53,0,0,0,16.68-6.95Q1073.61,170.62,1073.61,157.5Z"/>
            <path class="cls-1"
                  d="M1135.53,173.9a15.8,15.8,0,0,0,4.63,10q4.24,4.44,12.74,4.44,6.36,0,9.45-2.8a8.71,8.71,0,0,0,3.09-6.66,8,8,0,0,0-2.32-5.69q-2.31-2.4-7.91-3.57l-12.54-2.89q-13.89-3.07-20.25-10.71a26.66,26.66,0,0,1-6.37-17.65,27.75,27.75,0,0,1,2.7-12.05,30.27,30.27,0,0,1,7.43-9.84,37.21,37.21,0,0,1,11.19-6.66,38.87,38.87,0,0,1,14.18-2.5,45.63,45.63,0,0,1,17,2.79,34.5,34.5,0,0,1,11.29,7,29.73,29.73,0,0,1,6.46,9,28.47,28.47,0,0,1,2.51,8.59l-21.42,4.82a23.64,23.64,0,0,0-1.25-4.34,12.14,12.14,0,0,0-2.8-4.15,14.36,14.36,0,0,0-4.72-3.08,18,18,0,0,0-6.85-1.16,13.82,13.82,0,0,0-8.59,2.7,8.15,8.15,0,0,0-3.56,6.75,7.09,7.09,0,0,0,2.41,5.6,13.13,13.13,0,0,0,6.27,2.89l13.5,2.89q14.09,2.9,21.12,10.81a26.68,26.68,0,0,1,7,18.32,30.75,30.75,0,0,1-2.21,11.38,28.28,28.28,0,0,1-6.85,10,34.62,34.62,0,0,1-11.58,7.13,44.56,44.56,0,0,1-16.2,2.7q-10.8,0-18.13-3.08a38.78,38.78,0,0,1-12-7.53,29.32,29.32,0,0,1-6.85-9.55,30.8,30.8,0,0,1-2.61-9.16Z"/>
            <path class="cls-1"
                  d="M1207.68,79.18a15.46,15.46,0,0,1,4.63-11.38,15.95,15.95,0,0,1,22.47,0,15.66,15.66,0,0,1,4.54,11.38,15.83,15.83,0,0,1-27,11A15,15,0,0,1,1207.68,79.18Zm3.09,126V110.24h25.65v94.91Z"/>
            <path class="cls-1"
                  d="M1354.48,188q0,4.83.2,9.55t.57,7.62h-24.5a34.38,34.38,0,0,1-.67-4.63q-.28-3.09-.29-6.37a26.23,26.23,0,0,1-10.13,9.46q-6.84,3.85-16.49,3.85a45.58,45.58,0,0,1-18.71-3.76,43.25,43.25,0,0,1-14.57-10.41,49,49,0,0,1-9.55-15.82,56,56,0,0,1-3.47-20,55.39,55.39,0,0,1,3.38-19.48,48.41,48.41,0,0,1,9.35-15.72,45.66,45.66,0,0,1,43.5-13.22,35.45,35.45,0,0,1,7.82,2.9,21.91,21.91,0,0,1,5.3,3.76,15.63,15.63,0,0,1,3,4V65.49h25.27Zm-71.76-30.48q0,12.74,6.66,19.87a23.18,23.18,0,0,0,33.47,0q6.75-7.14,6.75-20.06,0-12.74-6.75-19.58a23.53,23.53,0,0,0-33.28.09Q1282.72,144.76,1282.72,157.5Z"/>
            <path class="cls-1"
                  d="M1377.63,79.18a15.46,15.46,0,0,1,4.63-11.38,15.95,15.95,0,0,1,22.47,0,15.66,15.66,0,0,1,4.54,11.38,15.83,15.83,0,0,1-27,11A15,15,0,0,1,1377.63,79.18Zm3.09,126V110.24h25.65v94.91Z"/>
            <path class="cls-1"
                  d="M1427,179.3a26.27,26.27,0,0,1,8.3-19.87,29.19,29.19,0,0,1,9-5.79,49.36,49.36,0,0,1,11.09-3.08l23.34-3.48q4.05-.57,5.6-2.41a6.5,6.5,0,0,0,1.54-4.34,11.49,11.49,0,0,0-3.95-8.68q-4-3.66-12.06-3.66-8.49,0-13,4.63a17.34,17.34,0,0,0-5.11,10.8l-22.77-4.82a31.38,31.38,0,0,1,3.48-11.19,34.42,34.42,0,0,1,7.9-10,40,40,0,0,1,12.35-7.24,47.56,47.56,0,0,1,17-2.79q11.17,0,19.09,3a35.69,35.69,0,0,1,12.83,7.9,29.35,29.35,0,0,1,7.14,11.48,42.48,42.48,0,0,1,2.22,13.7V190.1q0,3.87.38,8.2c.26,2.89.52,5.18.78,6.85h-23.54a48.92,48.92,0,0,1-.67-5.3c-.2-2.25-.29-4.28-.29-6.08a33.17,33.17,0,0,1-10.52,9.84q-6.84,4.23-17.45,4.24a36.52,36.52,0,0,1-13.6-2.41,32.5,32.5,0,0,1-10.33-6.37A26.77,26.77,0,0,1,1427,179.3Zm38,9.45a28.53,28.53,0,0,0,7.81-1.06,16.4,16.4,0,0,0,6.65-3.66,18.46,18.46,0,0,0,4.63-6.76,27.3,27.3,0,0,0,1.74-10.51v-4.24l-21.41,3.28a16.77,16.77,0,0,0-8.39,3.57q-3.37,2.79-3.38,8.39a11,11,0,0,0,3.09,7.62Q1458.84,188.76,1465,188.75Z"/>
            <path class="cls-1"
                  d="M1562.05,205.15h-25.66V110.24h24.89V122a26.81,26.81,0,0,1,12-10.81,36.76,36.76,0,0,1,15.34-3.47,36.38,36.38,0,0,1,15.34,3,30.71,30.71,0,0,1,10.7,8,32.17,32.17,0,0,1,6.27,12,52.14,52.14,0,0,1,2,14.66v59.8h-25.66V149.79q0-8.11-4.15-13.51t-13.4-5.4q-8.49,0-13.12,5.69a21.45,21.45,0,0,0-4.63,14Z"/>
            <path class="cls-1"
                  d="M1738,107.35a51.52,51.52,0,0,1,19.77,3.76,47.87,47.87,0,0,1,15.82,10.41A47.39,47.39,0,0,1,1784,137.44a53.24,53.24,0,0,1,3.77,20.25,52.49,52.49,0,0,1-3.77,20.16,48.61,48.61,0,0,1-10.41,15.92,47.05,47.05,0,0,1-15.82,10.51,53.88,53.88,0,0,1-39.55,0,46.91,46.91,0,0,1-15.81-10.51A48.8,48.8,0,0,1,1692,177.85a52.49,52.49,0,0,1-3.76-20.16,53.24,53.24,0,0,1,3.76-20.25,46.73,46.73,0,0,1,26.23-26.33A51.53,51.53,0,0,1,1738,107.35Zm0,77.35A24.83,24.83,0,0,0,1747,183a21.69,21.69,0,0,0,7.72-5.12,25.67,25.67,0,0,0,5.3-8.39,35.11,35.11,0,0,0,0-23.53,25.67,25.67,0,0,0-5.3-8.39,21.69,21.69,0,0,0-7.72-5.12,24.61,24.61,0,0,0-18.13,0,21.69,21.69,0,0,0-7.72,5.12,25.67,25.67,0,0,0-5.3,8.39,35.11,35.11,0,0,0,0,23.53,25.67,25.67,0,0,0,5.3,8.39,21.69,21.69,0,0,0,7.72,5.12A24.84,24.84,0,0,0,1738,184.7Z"/>
            <path class="cls-1"
                  d="M1866.07,135.7a39.71,39.71,0,0,0-7.72-.77,32.22,32.22,0,0,0-9.45,1.35,19.29,19.29,0,0,0-7.72,4.44,22.3,22.3,0,0,0-5.3,8.2,34.87,34.87,0,0,0-2,12.83v43.4h-25.66V110.24h24.89v14.08a22.51,22.51,0,0,1,5.5-7.62,25.21,25.21,0,0,1,7.13-4.53,32.71,32.71,0,0,1,7.53-2.12,44.77,44.77,0,0,1,6.85-.58c1,0,2,0,3,.09s2,.17,3,.29Z"/>
            <path class="cls-1"
                  d="M1973.71,188q0,4.83.19,9.55c.12,3.15.32,5.69.58,7.62H1950a34,34,0,0,1-.68-4.63q-.29-3.09-.29-6.37a26.27,26.27,0,0,1-10.12,9.46q-6.86,3.85-16.5,3.85a45.62,45.62,0,0,1-18.71-3.76,43.21,43.21,0,0,1-14.56-10.41,48.63,48.63,0,0,1-9.55-15.82,58.43,58.43,0,0,1-.1-39.45,48.43,48.43,0,0,1,9.36-15.72,45.66,45.66,0,0,1,43.5-13.22,35.35,35.35,0,0,1,7.81,2.9,21.91,21.91,0,0,1,5.3,3.76,15.69,15.69,0,0,1,3,4V65.49h25.27Zm-71.77-30.48q0,12.74,6.66,19.87a23.18,23.18,0,0,0,33.47,0q6.75-7.14,6.75-20.06,0-12.74-6.75-19.58a23.53,23.53,0,0,0-33.28.09Q1902,144.76,1901.94,157.5Z"/>
            <path class="cls-1"
                  d="M2086.36,178a39.38,39.38,0,0,1-5.49,11.67,40.35,40.35,0,0,1-9.17,9.55,44,44,0,0,1-12.63,6.46,50.06,50.06,0,0,1-15.92,2.41,52.15,52.15,0,0,1-18.71-3.37,45.17,45.17,0,0,1-15.63-9.94,47.52,47.52,0,0,1-10.7-16,55,55,0,0,1-4-21.41,53.2,53.2,0,0,1,3.86-20.64A48,48,0,0,1,2008.33,121a46.51,46.51,0,0,1,15-10,45,45,0,0,1,17.56-3.56q22.19,0,34.53,13.11t12.34,36.08c0,1.8-.06,3.5-.19,5.11s-.19,2.54-.19,2.8h-67.9a20.32,20.32,0,0,0,2.21,8.58,23.87,23.87,0,0,0,5.21,6.85,23.42,23.42,0,0,0,7.43,4.53,24.8,24.8,0,0,0,9.07,1.64q9.06,0,14.17-4.05a23,23,0,0,0,7.43-10.42Zm-23.92-31.06A23.62,23.62,0,0,0,2061,140a16.76,16.76,0,0,0-3.86-6,20.09,20.09,0,0,0-6.56-4.24,24.43,24.43,0,0,0-9.36-1.64,21.37,21.37,0,0,0-8.87,1.74,21.71,21.71,0,0,0-6.56,4.43,19.94,19.94,0,0,0-4.15,6,19.13,19.13,0,0,0-1.64,6.56Z"/>
            <path class="cls-1"
                  d="M2166.23,135.7a39.71,39.71,0,0,0-7.72-.77,32.22,32.22,0,0,0-9.45,1.35,19.29,19.29,0,0,0-7.72,4.44,22.3,22.3,0,0,0-5.3,8.2,35.08,35.08,0,0,0-2,12.83v43.4h-25.66V110.24h24.89v14.08a22.51,22.51,0,0,1,5.5-7.62,25.21,25.21,0,0,1,7.13-4.53,32.71,32.71,0,0,1,7.53-2.12,44.77,44.77,0,0,1,6.85-.58c1,0,2,0,3,.09s2,.17,3,.29Z"/>
        </g>
    </g>
</svg>
