<!--
  - MIT License
  -
  - Copyright (c) 2022 NemeaQ
  -
  - Permission is hereby granted, free of charge, to any person obtaining a copy
  - of this software and associated documentation files (the "Software"), to deal
  - in the Software without restriction, including without limitation the rights
  - to use, copy, modify, merge, publish, distribute, sublicense, and/or sell
  - copies of the Software, and to permit persons to whom the Software is
  - furnished to do so, subject to the following conditions:
  -
  - The above copyright notice and this permission notice shall be included in all
  - copies or substantial portions of the Software.
  -
  - THE SOFTWARE IS PROVIDED "AS IS", WITHOUT WARRANTY OF ANY KIND, EXPRESS OR
  - IMPLIED, INCLUDING BUT NOT LIMITED TO THE WARRANTIES OF MERCHANTABILITY,
  - FITNESS FOR A PARTICULAR PURPOSE AND NONINFRINGEMENT. IN NO EVENT SHALL THE
  - AUTHORS OR COPYRIGHT HOLDERS BE LIABLE FOR ANY CLAIM, DAMAGES OR OTHER
  - LIABILITY, WHETHER IN AN ACTION OF CONTRACT, TORT OR OTHERWISE, ARISING FROM,
  - OUT OF OR IN CONNECTION WITH THE SOFTWARE OR THE USE OR OTHER DEALINGS IN THE
  - SOFTWARE.
  -->

<svg xmlns="http://www.w3.org/2000/svg" width="32" height="32" viewBox="0 0 32 32">
    <symbol id="menu" viewBox="0 0 32 32">
        <path id="menu"
              d="M-1550.516-3095.534a2.443,2.443,0,0,1-2.485-2.392,2.443,2.443,0,0,1,2.485-2.393h22.031a2.443,2.443,0,0,1,2.485,2.393,2.443,2.443,0,0,1-2.485,2.392Zm0-7.34a2.443,2.443,0,0,1-2.485-2.392,2.443,2.443,0,0,1,2.485-2.393h22.031a2.442,2.442,0,0,1,2.485,2.393,2.443,2.443,0,0,1-2.485,2.392Zm0-7.34a2.443,2.443,0,0,1-2.485-2.392,2.443,2.443,0,0,1,2.485-2.394h22.031a2.442,2.442,0,0,1,2.485,2.394,2.442,2.442,0,0,1-2.485,2.392Z"
              transform="translate(1553.001 3115)"/>
    </symbol>
    <symbol id="cross" viewBox="0 0 32 32">
        <path id="cross"
              d="M-2519.024-3085.656a2.5,2.5,0,0,1,0-3.535l10.221-10.222-10.4-10.042a2.5,2.5,0,0,1-.062-3.535,2.5,2.5,0,0,1,3.535-.062l10.462,10.1,10.283-10.284a2.5,2.5,0,0,1,3.536,0,2.5,2.5,0,0,1,0,3.535l-10.222,10.222,10.4,10.042a2.5,2.5,0,0,1,.062,3.535,2.5,2.5,0,0,1-3.535.061l-10.462-10.1-10.283,10.283a2.492,2.492,0,0,1-1.768.732A2.49,2.49,0,0,1-2519.024-3085.656Z"
              transform="translate(2519.965 3113.965)"/>
    </symbol>
</svg>
