<!--
  - MIT License
  -
  - Copyright (c) 2022 NemeaQ
  -
  - Permission is hereby granted, free of charge, to any person obtaining a copy
  - of this software and associated documentation files (the "Software"), to deal
  - in the Software without restriction, including without limitation the rights
  - to use, copy, modify, merge, publish, distribute, sublicense, and/or sell
  - copies of the Software, and to permit persons to whom the Software is
  - furnished to do so, subject to the following conditions:
  -
  - The above copyright notice and this permission notice shall be included in all
  - copies or substantial portions of the Software.
  -
  - THE SOFTWARE IS PROVIDED "AS IS", WITHOUT WARRANTY OF ANY KIND, EXPRESS OR
  - IMPLIED, INCLUDING BUT NOT LIMITED TO THE WARRANTIES OF MERCHANTABILITY,
  - FITNESS FOR A PARTICULAR PURPOSE AND NONINFRINGEMENT. IN NO EVENT SHALL THE
  - AUTHORS OR COPYRIGHT HOLDERS BE LIABLE FOR ANY CLAIM, DAMAGES OR OTHER
  - LIABILITY, WHETHER IN AN ACTION OF CONTRACT, TORT OR OTHERWISE, ARISING FROM,
  - OUT OF OR IN CONNECTION WITH THE SOFTWARE OR THE USE OR OTHER DEALINGS IN THE
  - SOFTWARE.
  -->

<svg viewBox="0 0 210 210">
    <path
        d="M169 0H80C67 0 57 10 57 23v3H42c-13 0-24 11-24 23v138c0 13 11 23 24 23h88c13 0 23-10 23-23v-3h16c12 0 23-10 23-23V23c0-13-11-23-23-23zm-31 187c0 4-4 8-8 8H42c-5 0-9-4-9-8V49c0-4 4-8 9-8h88c4 0 8 4 8 8v138zm39-26c0 4-4 8-8 8h-16V49c0-12-10-23-23-23H72v-3c0-4 4-8 8-8h89c4 0 8 4 8 8v138z"
        fill="#fff"/>
</svg>
