<!--
  - MIT License
  -
  - Copyright (c) 2022 NemeaQ
  -
  - Permission is hereby granted, free of charge, to any person obtaining a copy
  - of this software and associated documentation files (the "Software"), to deal
  - in the Software without restriction, including without limitation the rights
  - to use, copy, modify, merge, publish, distribute, sublicense, and/or sell
  - copies of the Software, and to permit persons to whom the Software is
  - furnished to do so, subject to the following conditions:
  -
  - The above copyright notice and this permission notice shall be included in all
  - copies or substantial portions of the Software.
  -
  - THE SOFTWARE IS PROVIDED "AS IS", WITHOUT WARRANTY OF ANY KIND, EXPRESS OR
  - IMPLIED, INCLUDING BUT NOT LIMITED TO THE WARRANTIES OF MERCHANTABILITY,
  - FITNESS FOR A PARTICULAR PURPOSE AND NONINFRINGEMENT. IN NO EVENT SHALL THE
  - AUTHORS OR COPYRIGHT HOLDERS BE LIABLE FOR ANY CLAIM, DAMAGES OR OTHER
  - LIABILITY, WHETHER IN AN ACTION OF CONTRACT, TORT OR OTHERWISE, ARISING FROM,
  - OUT OF OR IN CONNECTION WITH THE SOFTWARE OR THE USE OR OTHER DEALINGS IN THE
  - SOFTWARE.
  -->

<svg viewBox="0 0 157 157">
    <path
        d="M153 37c-8-17-24-28-43-29a56 56 0 00-32 9 56 56 0 00-32-9 48 48 0 00-33 81l60 58a7 7 0 0011 0l60-58c13-14 16-34 9-52zm-20 42l-55 52-55-52c-8-10-10-24-5-36a32 32 0 0130-20c9 0 18 3 25 9a8 8 0 0010 0 40 40 0 0127-9c13 0 24 8 29 20s3 26-6 36z"
        fill="#fff"/>
</svg>
